<svg width="1024" height="1024" viewBox="0 0 1024 1024" fill="none" xmlns="http://www.w3.org/2000/svg">
<g clip-path="url(#clip0_10_43)">
<rect width="1024" height="1024" fill="white"/>
<path d="M546.164 511.938C546.164 493.107 530.898 477.842 512.067 477.842H239.291C220.46 477.842 205.194 493.107 205.194 511.938V784.71C205.194 803.541 220.46 818.807 239.291 818.807H512.067C530.898 818.807 546.164 803.541 546.164 784.71V511.938ZM614.357 784.71C614.357 841.203 568.56 887 512.067 887H239.291C182.797 887 137 841.203 137 784.71V511.938C137 455.445 182.797 409.649 239.291 409.649H512.067C568.56 409.649 614.357 455.445 614.357 511.938V784.71Z" fill="url(#paint0_linear_10_43)"/>
<path d="M818.806 409.639C818.804 399.369 815.053 389.476 808.284 381.769L639.93 216.081L636.933 213.584C629.656 208.15 620.778 205.193 611.627 205.193C601.256 205.194 591.264 209.021 583.524 215.915L467.98 331.457C454.665 344.772 433.081 344.772 419.765 331.457C406.454 318.141 406.451 296.556 419.765 283.242L536.374 166.635L537.639 165.436C557.934 147.138 584.302 137.001 611.627 137C635.536 137 658.709 144.748 677.723 158.943L685.615 165.436L686.68 166.435L857.165 334.187C857.649 334.663 858.142 335.181 858.597 335.685C876.885 355.976 886.997 382.323 887 409.639C887 436.962 876.892 463.332 858.597 483.626C858.205 484.06 857.779 484.477 857.365 484.891L738.026 604.229C724.71 617.544 703.126 617.544 689.81 604.229C676.501 590.913 676.497 569.327 689.81 556.014L808.384 437.409C815.09 429.716 818.806 419.86 818.806 409.639Z" fill="url(#paint1_linear_10_43)"/>
<path d="M307.818 682.421C326.649 682.421 341.915 697.686 341.915 716.517C341.915 735.348 326.649 750.614 307.818 750.614H307.485C288.654 750.614 273.388 735.348 273.388 716.517C273.388 697.686 288.654 682.421 307.485 682.421H307.818Z" fill="url(#paint2_linear_10_43)"/>
<path d="M444.206 546.035C463.037 546.035 478.303 561.3 478.303 580.131C478.303 598.962 463.037 614.228 444.206 614.228H443.873C425.041 614.228 409.776 598.962 409.776 580.131C409.776 561.3 425.041 546.035 443.873 546.035H444.206Z" fill="url(#paint3_linear_10_43)"/>
<path d="M614.69 273.263C633.522 273.263 648.787 288.528 648.787 307.359C648.787 326.19 633.522 341.456 614.69 341.456H614.357C595.526 341.456 580.26 326.19 580.26 307.359C580.26 288.528 595.526 273.263 614.357 273.263H614.69Z" fill="url(#paint4_linear_10_43)"/>
<path d="M716.981 375.552C735.813 375.552 751.078 390.818 751.078 409.649C751.078 428.48 735.813 443.745 716.981 443.745H716.648C697.817 443.745 682.551 428.48 682.551 409.649C682.551 390.818 697.817 375.552 716.648 375.552H716.981Z" fill="url(#paint5_linear_10_43)"/>
</g>
<defs>
<linearGradient id="paint0_linear_10_43" x1="512" y1="137" x2="512" y2="887" gradientUnits="userSpaceOnUse">
<stop stop-color="#D0AD71"/>
<stop offset="1" stop-color="#8C684C"/>
</linearGradient>
<linearGradient id="paint1_linear_10_43" x1="512" y1="137" x2="512" y2="887" gradientUnits="userSpaceOnUse">
<stop stop-color="#D0AD71"/>
<stop offset="1" stop-color="#8C684C"/>
</linearGradient>
<linearGradient id="paint2_linear_10_43" x1="512" y1="137" x2="512" y2="887" gradientUnits="userSpaceOnUse">
<stop stop-color="#D0AD71"/>
<stop offset="1" stop-color="#8C684C"/>
</linearGradient>
<linearGradient id="paint3_linear_10_43" x1="512" y1="137" x2="512" y2="887" gradientUnits="userSpaceOnUse">
<stop stop-color="#D0AD71"/>
<stop offset="1" stop-color="#8C684C"/>
</linearGradient>
<linearGradient id="paint4_linear_10_43" x1="512" y1="137" x2="512" y2="887" gradientUnits="userSpaceOnUse">
<stop stop-color="#D0AD71"/>
<stop offset="1" stop-color="#8C684C"/>
</linearGradient>
<linearGradient id="paint5_linear_10_43" x1="512" y1="137" x2="512" y2="887" gradientUnits="userSpaceOnUse">
<stop stop-color="#D0AD71"/>
<stop offset="1" stop-color="#8C684C"/>
</linearGradient>
<clipPath id="clip0_10_43">
<rect width="1024" height="1024" fill="white"/>
</clipPath>
</defs>
</svg>
