<svg xmlns="http://www.w3.org/2000/svg" width="1024" height="1024" fill="none"><g clip-path="url(#a)"><path fill="url(#b)" d="M558.645 511.916c0-25.711-20.843-46.553-46.554-46.553h-372.43c-25.711 0-46.554 20.842-46.554 46.553v372.425c0 25.71 20.843 46.553 46.554 46.553h372.43c25.711 0 46.554-20.843 46.554-46.553V511.916Zm93.107 372.425c0 77.131-62.528 139.659-139.661 139.659h-372.43C62.528 1024 0 961.472 0 884.341V511.916c0-77.132 62.528-139.659 139.661-139.659h372.43c77.133 0 139.661 62.527 139.661 139.659v372.425Z"/><path fill="url(#c)" d="M930.893 372.243a57.676 57.676 0 0 0-14.367-38.052L686.667 107.972l-4.091-3.409a57.755 57.755 0 0 0-34.552-11.457c-14.16.001-27.802 5.227-38.37 14.639L451.898 265.498c-18.18 18.18-47.649 18.18-65.829 0-18.174-18.181-18.179-47.651 0-65.829l159.21-159.208 1.727-1.636a150.855 150.855 0 0 1 191.261-8.865l10.775 8.865 1.455 1.363 232.769 229.038c.66.65 1.334 1.357 1.954 2.046A150.801 150.801 0 0 1 1024 372.243c0 37.305-13.8 73.309-38.78 101.016-.535.594-1.116 1.163-1.682 1.728L820.6 637.923c-18.18 18.18-47.649 18.18-65.83 0-18.171-18.181-18.177-47.652 0-65.829l161.893-161.936a57.708 57.708 0 0 0 14.23-37.915Z"/><path fill="url(#d)" d="M233.223 744.681c25.711 0 46.554 20.843 46.554 46.553 0 25.711-20.843 46.554-46.554 46.554h-.454c-25.711 0-46.554-20.843-46.554-46.554 0-25.71 20.843-46.553 46.554-46.553h.454Z"/><path fill="url(#e)" d="M419.438 558.469c25.711 0 46.554 20.843 46.554 46.553 0 25.711-20.843 46.553-46.554 46.553h-.454c-25.711 0-46.554-20.842-46.554-46.553 0-25.71 20.843-46.553 46.554-46.553h.454Z"/><path fill="url(#f)" d="M652.207 186.044c25.711 0 46.553 20.843 46.553 46.553 0 25.711-20.842 46.553-46.553 46.553h-.455c-25.711 0-46.554-20.842-46.554-46.553 0-25.71 20.843-46.553 46.554-46.553h.455Z"/><path fill="url(#g)" d="M791.868 325.704c25.711 0 46.554 20.842 46.554 46.553 0 25.71-20.843 46.553-46.554 46.553h-.455c-25.711 0-46.553-20.843-46.553-46.553 0-25.711 20.842-46.553 46.553-46.553h.455Z"/></g><defs><linearGradient id="b" x1="512" x2="512" y1="0" y2="1024" gradientUnits="userSpaceOnUse"><stop stop-color="#D0AD71"/><stop offset="1" stop-color="#8C684C"/></linearGradient><linearGradient id="c" x1="512" x2="512" y1="0" y2="1024" gradientUnits="userSpaceOnUse"><stop stop-color="#D0AD71"/><stop offset="1" stop-color="#8C684C"/></linearGradient><linearGradient id="d" x1="512" x2="512" y1="0" y2="1024" gradientUnits="userSpaceOnUse"><stop stop-color="#D0AD71"/><stop offset="1" stop-color="#8C684C"/></linearGradient><linearGradient id="e" x1="512" x2="512" y1="0" y2="1024" gradientUnits="userSpaceOnUse"><stop stop-color="#D0AD71"/><stop offset="1" stop-color="#8C684C"/></linearGradient><linearGradient id="f" x1="512" x2="512" y1="0" y2="1024" gradientUnits="userSpaceOnUse"><stop stop-color="#D0AD71"/><stop offset="1" stop-color="#8C684C"/></linearGradient><linearGradient id="g" x1="512" x2="512" y1="0" y2="1024" gradientUnits="userSpaceOnUse"><stop stop-color="#D0AD71"/><stop offset="1" stop-color="#8C684C"/></linearGradient><clipPath id="a"><path fill="#fff" d="M0 0h1024v1024H0z"/></clipPath></defs></svg>